<?xml version="1.0" encoding="iso-8859-1"?>
<!-- Generator: Adobe Illustrator 19.0.0, SVG Export Plug-In . SVG Version: 6.00 Build 0)  -->
<svg version="1.1" id="Layer_1" xmlns="http://www.w3.org/2000/svg" xmlns:xlink="http://www.w3.org/1999/xlink" x="0px" y="0px"
	 viewBox="0 0 512 512" style="enable-background:new 0 0 512 512;" xml:space="preserve">
<path d="M512,99.04V73.6c0-15.84-12.96-28.8-28.8-28.8H115.04H28.8C12.96,44.8,0,57.76,0,73.6v25.44H512z"/>
<g>
	<path style="opacity:0.25;fill:#FFFFFF;enable-background:new    ;" d="M147.04,44.8h-32H28.8C12.96,44.8,0,57.76,0,73.6v25.44
		h115.84L147.04,44.8z"/>
	<rect x="8" y="107.04" style="fill:#FFFFFF;" width="496" height="352"/>
</g>
<path style="fill:#EFEFEF;" d="M496,115.2v336H16v-336L496,115.2 M512,99.2H0v368h512V99.2L512,99.2z"/>
<path style="fill:#E0E0E0;" d="M488,123.2v320H24v-320L488,123.2 M492,119.2H20v328h472V119.2L492,119.2z"/>
<circle style="fill:#FF0000;" cx="40.48" cy="72" r="8.16"/>
<circle style="fill:#22ACDD;" cx="65.12" cy="72" r="8.16"/>
<g>
	<circle style="fill:#FFFFFF;" cx="89.6" cy="72" r="8.16"/>
	<path style="fill:#FFFFFF;" d="M428.32,86.4H170.88c-7.84,0-14.4-6.4-14.4-14.4l0,0c0-7.84,6.4-14.4,14.4-14.4h257.44
		c7.84,0,14.4,6.4,14.4,14.4l0,0C442.56,79.84,436.16,86.4,428.32,86.4z"/>
</g>
<path d="M180.64,65.44l1.92,7.52c0.48,1.6,0.8,3.2,1.12,4.8h0.16c0.32-1.44,0.8-3.04,1.28-4.64l2.4-7.52h2.24l2.24,7.52
	c0.48,1.76,0.96,3.36,1.28,4.8h0.16c0.32-1.44,0.64-3.04,1.12-4.8l2.08-7.52h2.72l-4.8,14.88h-2.4l-2.24-7.04
	c-0.48-1.6-0.96-3.2-1.28-4.96l0,0c-0.32,1.76-0.8,3.36-1.28,4.96l-2.4,7.04h-2.4l-4.48-14.88h2.56V65.44z"/>
<path d="M203.52,65.44l1.92,7.52c0.48,1.6,0.8,3.2,1.12,4.8h0.16c0.32-1.44,0.8-3.04,1.28-4.64l2.4-7.52h2.24l2.24,7.52
	c0.48,1.76,0.96,3.36,1.28,4.8h0.16c0.32-1.44,0.64-3.04,1.12-4.8l2.08-7.52h2.72l-4.8,14.88h-2.4l-2.24-7.36
	c-0.48-1.6-0.96-3.2-1.28-4.96l0,0c-0.32,1.76-0.8,3.36-1.28,4.96l-2.4,7.04h-2.4l-4.48-14.88h2.56V65.44z"/>
<path d="M226.56,65.44l1.92,7.52c0.48,1.6,0.8,3.2,1.12,4.8h0.16c0.32-1.44,0.8-3.04,1.28-4.64l2.4-7.52h2.24l2.24,7.52
	c0.48,1.76,0.96,3.36,1.28,4.8h0.16c0.32-1.44,0.64-3.04,1.12-4.8l2.08-7.52h2.72l-4.8,14.88h-2.4l-2.24-7.04
	c-0.48-1.6-0.96-3.2-1.28-4.96l0,0c-0.32,1.76-0.8,3.36-1.28,4.96l-2.4,7.04h-2.4L224,65.6h2.56V65.44z"/>
<path d="M246.24,78.72c0-1.12,0.8-1.92,1.92-1.92s1.76,0.8,1.76,1.92c0,1.12-0.64,1.92-1.92,1.92
	C246.88,80.64,246.24,79.84,246.24,78.72z"/>
<g>
	<rect x="461.28" y="70.4" style="fill:#FFFFFF;" width="23.04" height="4"/>
	<polygon style="fill:#FFFFFF;" points="474.56,84.32 471.68,81.44 480.8,72.32 471.68,63.2 474.56,60.48 486.56,72.32 	"/>
</g>
<polygon style="fill:#C9C9C9;" points="429.76,67.36 422.24,77.28 414.56,67.36 "/>
<g>
	<path style="fill:#F33052;" d="M98.08,223.2h7.52v38.88c0,15.36-7.52,20.16-17.6,20.16c-2.72,0-6.08-0.64-8-1.44l1.12-6.08
		c1.6,0.64,3.84,1.12,6.24,1.12c6.72,0,10.72-3.04,10.72-14.4V223.2z"/>
	<path style="fill:#F33052;" d="M140.96,281.28l-0.64-5.28h-0.16c-2.4,3.2-6.88,6.24-12.8,6.24c-8.48,0-12.8-5.92-12.8-12
		c0-10.08,8.96-15.52,25.12-15.52v-0.8c0-3.52-0.96-9.6-9.44-9.6c-3.84,0-8,1.28-10.88,3.04l-1.76-4.96
		c3.52-2.24,8.48-3.68,13.76-3.68c12.8,0,15.84,8.64,15.84,17.12v15.52c0,3.68,0.16,7.2,0.64,10.08h-6.88V281.28z M139.84,260
		c-8.32-0.16-17.6,1.28-17.6,9.44c0,4.96,3.2,7.2,7.2,7.2c5.44,0,8.8-3.52,10.08-7.04c0.32-0.8,0.48-1.6,0.48-2.4V260H139.84z"/>
	<path style="fill:#F33052;" d="M161.6,239.52l8.16,23.52c1.44,3.84,2.56,7.2,3.36,10.72h0.32c0.96-3.52,2.08-6.88,3.52-10.72
		l8.16-23.52h8l-16.32,41.76h-7.2l-16-41.76H161.6z"/>
	<path style="fill:#F33052;" d="M223.04,281.28L222.4,276h-0.32c-2.4,3.2-6.88,6.24-12.8,6.24c-8.48,0-12.8-5.92-12.8-12
		c0-10.08,8.96-15.52,25.12-15.52v-0.8c0-3.52-0.96-9.6-9.44-9.6c-3.84,0-8,1.28-10.88,3.04l-1.76-4.96
		c3.52-2.24,8.48-3.68,13.76-3.68c12.8,0,15.84,8.64,15.84,17.12v15.52c0,3.68,0.16,7.2,0.64,10.08h-6.72V281.28z M221.92,260
		c-8.32-0.16-17.6,1.28-17.6,9.44c0,4.96,3.2,7.2,7.2,7.2c5.44,0,8.8-3.52,10.08-7.04c0.32-0.8,0.48-1.6,0.48-2.4V260H221.92z"/>
	<path style="fill:#F33052;" d="M240.32,273.44c2.24,1.44,6.24,3.04,10.08,3.04c5.44,0,8.16-2.72,8.16-6.24
		c0-3.68-2.08-5.6-7.68-7.68c-7.52-2.72-11.04-6.88-11.04-11.84c0-6.72,5.44-12.32,14.4-12.32c4.16,0,8,1.28,10.24,2.56l-1.92,5.44
		c-1.6-1.12-4.64-2.4-8.48-2.4c-4.48,0-7.04,2.56-7.04,5.76c0,3.52,2.56,4.96,8,7.04c7.2,2.72,10.88,6.4,10.88,12.64
		c0,7.36-5.76,12.48-15.52,12.48c-4.64,0-8.8-1.12-11.68-2.88L240.32,273.44z"/>
	<path style="fill:#F33052;" d="M305.28,279.68c-1.92,0.96-6.4,2.4-12,2.4c-12.64,0-20.8-8.48-20.8-21.28
		c0-12.8,8.8-22.08,22.4-22.08c4.48,0,8.48,1.12,10.56,2.08l-1.76,5.92c-1.76-1.12-4.64-1.92-8.8-1.92
		c-9.6,0-14.72,7.04-14.72,15.84c0,9.6,6.24,15.52,14.56,15.52c4.32,0,7.2-1.12,9.28-2.08L305.28,279.68z"/>
	<path style="fill:#F33052;" d="M314.24,252.64c0-4.96,0-9.12-0.32-12.96h6.56l0.32,8.16h0.32c1.92-5.6,6.4-9.12,11.52-9.12
		c0.8,0,1.44,0.16,2.08,0.32v7.2c-0.8-0.16-1.6-0.32-2.56-0.32c-5.28,0-9.12,4-10.24,9.76c-0.16,0.96-0.32,2.24-0.32,3.52v22.24
		h-7.52v-28.8H314.24z"/>
	<path style="fill:#F33052;" d="M351.2,227.84c0.16,2.56-1.76,4.64-4.8,4.64c-2.72,0-4.64-2.08-4.64-4.64c0-2.72,1.92-4.8,4.8-4.8
		C349.44,223.04,351.2,225.12,351.2,227.84z M342.72,281.28v-41.76h7.52v41.76H342.72z"/>
	<path style="fill:#F33052;" d="M362.88,253.12c0-5.28-0.16-9.6-0.32-13.6h6.88l0.32,7.2h0.16c3.04-5.12,8-8.16,14.88-8.16
		c10.08,0,17.6,8.48,17.6,21.28c0,15.04-9.12,22.4-18.88,22.4c-5.44,0-10.4-2.4-12.8-6.56h-0.16v22.72h-7.52v-45.28H362.88z
		 M370.4,264.32c0,1.12,0.16,2.08,0.32,3.04c1.44,5.28,5.92,8.96,11.36,8.96c8,0,12.64-6.56,12.64-16.16
		c0-8.32-4.32-15.52-12.48-15.52c-5.12,0-9.92,3.68-11.52,9.44c-0.32,0.96-0.48,2.08-0.48,3.04v7.2H370.4z"/>
	<path style="fill:#F33052;" d="M421.12,227.52v12H432v5.76h-10.88v22.56c0,5.12,1.44,8.16,5.76,8.16c1.92,0,3.52-0.32,4.32-0.48
		l0.32,5.76c-1.44,0.64-3.84,0.96-6.72,0.96c-3.52,0-6.4-1.12-8.16-3.2c-2.08-2.24-2.88-5.92-2.88-10.88v-22.72h-6.4v-5.76h6.4
		V229.6L421.12,227.52z"/>
</g>
<rect x="80" y="319.68" style="fill:#22ACDD;" width="352" height="11.2"/>
<g>
</g>
<g>
</g>
<g>
</g>
<g>
</g>
<g>
</g>
<g>
</g>
<g>
</g>
<g>
</g>
<g>
</g>
<g>
</g>
<g>
</g>
<g>
</g>
<g>
</g>
<g>
</g>
<g>
</g>
</svg>
